<svg width="93" height="62" viewBox="0 0 93 62" fill="none" xmlns="http://www.w3.org/2000/svg">
<g clip-path="url(#clip0_615_286)">
<path d="M16.3526 9.76904V11.1015C12.8739 11.1015 10.4061 13.4477 10.4061 16.7208V25.0919H8.94922V10.1166H10.4061V13.3897C11.1792 11.2753 13.528 9.76904 16.3526 9.76904Z" fill="white"/>
<path d="M31.3378 22.141L32.2893 23.1259C30.981 24.5162 28.3051 25.4431 25.9562 25.4431C21.8531 25.4431 18.3149 21.9672 18.3149 17.5645C18.3149 13.1617 21.6747 9.77271 25.867 9.77271C30.3567 9.77271 33.1813 13.1327 33.1813 18.2017H19.8016C20.0989 21.5038 22.6856 24.1107 25.9265 24.1107C28.0078 24.1107 30.1783 23.3866 31.3378 22.141ZM19.8016 16.8693H31.7244C31.5162 13.4803 29.3458 11.1051 25.8968 11.1051C22.6856 11.1051 20.1286 13.5382 19.8016 16.8693Z" fill="white"/>
<path d="M39.2134 16.5217H46.9141V17.9121H39.2134V16.5217Z" fill="white"/>
<path d="M7.90869 44.3866C7.90869 39.9259 11.2387 36.5659 15.6689 36.5659C17.7205 36.5659 19.6234 37.4059 21.0208 38.7673L19.9801 39.7521C18.88 38.6225 17.3339 37.8983 15.6689 37.8983C12.0713 37.8983 9.39532 40.679 9.39532 44.3866C9.39532 48.0942 12.0713 50.9039 15.6689 50.9039C17.3339 50.9039 18.88 50.1798 20.0396 49.0211L21.0505 50.006C19.6531 51.3963 17.7502 52.2363 15.6689 52.2363C11.2387 52.2363 7.90869 48.8763 7.90869 44.3866Z" fill="white"/>
<path d="M36.3627 48.9342L37.3142 49.9191C36.006 51.3094 33.33 52.2363 30.9811 52.2363C26.878 52.2363 23.3398 48.7605 23.3398 44.3577C23.3398 39.9549 26.6996 36.5659 30.8919 36.5659C35.3816 36.5659 38.2062 39.9259 38.2062 44.9949H24.8265C25.1238 48.297 27.7105 50.9039 30.9514 50.9039C33.0327 50.9039 35.2032 50.1798 36.3627 48.9342ZM24.8265 43.6625H36.7493C36.5411 40.2735 34.3707 37.8983 30.9217 37.8983C27.7105 37.8983 25.1535 40.3315 24.8265 43.6625Z" fill="white"/>
<path d="M53.3997 42.1526V51.8851H51.9429V42.3554C51.9429 39.7485 50.0994 37.8947 47.4532 37.8947C44.807 37.8947 42.6068 39.8064 42.6068 42.3264V51.8851H41.1499V36.9098H42.6068V39.4878C43.4096 37.7209 45.3422 36.5623 47.6614 36.5623C51.0211 36.5623 53.3997 38.8795 53.3997 42.1526Z" fill="white"/>
<path d="M64.8131 51.2804C64.0103 51.8886 62.9994 52.2362 61.9587 52.2362C59.9964 52.2362 58.6287 50.6431 58.6287 48.4128V38.2458H56.0122V36.9134H58.6287V32.8003H60.0856V36.9134H64.04V38.2458H60.0856V48.4128C60.0856 49.8611 60.9181 50.9038 62.0479 50.9038C62.7912 50.9038 63.5346 50.6142 64.0698 50.1797L64.8131 51.2804Z" fill="white"/>
<path d="M75.8736 36.5623V37.8947C72.3949 37.8947 69.9271 40.2409 69.9271 43.514V51.8851H68.4702V36.9098H69.9271V40.183C70.7002 38.0685 73.049 36.5623 75.8736 36.5623Z" fill="white"/>
<path d="M91.1562 48.9342L92.1076 49.9191C90.7994 51.3094 88.1235 52.2363 85.7746 52.2363C81.6715 52.2363 78.1333 48.7605 78.1333 44.3577C78.1333 39.9549 81.4931 36.5659 85.6854 36.5659C90.175 36.5659 92.9996 39.9259 92.9996 44.9949H79.6199C79.9173 48.297 82.504 50.9039 85.7449 50.9039C87.8261 50.9039 89.9966 50.1798 91.1562 48.9342ZM79.6199 43.6625H91.5427C91.3346 40.2735 89.1641 37.8983 85.7151 37.8983C82.504 37.8983 79.947 40.3315 79.6199 43.6625Z" fill="white"/>
<path d="M1.11497 0.290039H0V61.766H1.11497V0.290039Z" fill="white"/>
</g>
<defs>
<clipPath id="clip0_615_286">
<rect width="93" height="61.4759" fill="white" transform="translate(0 0.290039)"/>
</clipPath>
</defs>
</svg>
