<svg width="42" height="36" viewBox="0 0 42 36" fill="none" xmlns="http://www.w3.org/2000/svg">
<path d="M16.1875 35.8125H0.4375V27.125C0.4375 21.6667 1.10417 16.9583 2.4375 13C3.8125 9 6.10417 4.91667 9.3125 0.75L15.4375 5.5625C13.8958 7.8125 12.75 9.75 12 11.375C11.2917 13 10.5833 15.1667 9.875 17.875H16.1875V35.8125ZM41.6875 35.8125H25.9375V27.125C25.9375 21.6667 26.6042 16.9583 27.9375 13C29.2708 9 31.5625 4.91667 34.8125 0.75L40.9375 5.5625C39.3958 7.8125 38.25 9.75 37.5 11.375C36.7917 13 36.0833 15.1667 35.375 17.875H41.6875V35.8125Z" fill="#405540"/>
</svg>
